<?xml version="1.0" encoding="UTF-8"?>
<svg version="1.1" xmlns="http://www.w3.org/2000/svg" width="806" height="636">
<path d="M0 0 C265.98 0 531.96 0 806 0 C806 209.88 806 419.76 806 636 C540.02 636 274.04 636 0 636 C0 426.12 0 216.24 0 0 Z " fill="#F6F6F6" transform="translate(0,0)"/>
<path d="M0 0 C1.5889098 -0.00844107 3.17780959 -0.01897836 4.76669312 -0.03141785 C9.03146289 -0.05818297 13.29564091 -0.05384091 17.56045675 -0.04171729 C21.14344399 -0.03452063 24.72632624 -0.04312932 28.30930531 -0.05162269 C36.77335947 -0.07148728 45.23713061 -0.06610638 53.70117188 -0.04394531 C62.38330014 -0.02159707 71.06468415 -0.03918118 79.74674213 -0.0769946 C87.2479779 -0.10839638 94.74898536 -0.11609405 102.25027859 -0.10504085 C106.70978639 -0.09860703 111.16886579 -0.100297 115.6283226 -0.12436485 C158.31605162 -0.33024701 158.31605162 -0.33024701 176.41455078 13.6628418 C177.68685547 14.62963867 177.68685547 14.62963867 178.98486328 15.6159668 C191.41823746 25.88205557 199.14292682 40.75541028 201.41455078 56.6628418 C201.50229058 58.65159421 201.543535 60.6427708 201.54597855 62.63345623 C201.54981969 63.81252314 201.55366084 64.99159006 201.55761838 66.20638627 C201.5567519 67.49265548 201.55588542 68.77892469 201.55499268 70.10417175 C201.55757813 71.49156902 201.56059179 72.87896555 201.56399608 74.26636106 C201.5720481 78.07390234 201.57385464 81.88142476 201.57459354 85.68897355 C201.57644722 89.79750645 201.58399613 93.90602962 201.59072876 98.01455688 C201.60429965 106.99605734 201.61033481 115.97755333 201.61473942 124.95906234 C201.61750384 130.56908179 201.62174155 136.17909952 201.62624359 141.78911781 C201.63843444 157.32731995 201.64873424 172.86552071 201.65211868 188.40372753 C201.65233825 189.39783461 201.65255782 190.3919417 201.65278403 191.41617324 C201.65300231 192.41263206 201.65322059 193.40909088 201.65344548 194.43574542 C201.65388895 196.45488497 201.65433551 198.47402452 201.65478516 200.49316406 C201.65500659 201.49472282 201.65522802 202.49628157 201.65545616 203.52819059 C201.65940362 219.75461335 201.67685691 235.98099118 201.70014468 252.20739659 C201.72387106 268.87419434 201.73632111 285.54096956 201.7374866 302.20778447 C201.73840262 311.56260679 201.74413647 320.91737057 201.76230621 330.27217674 C201.77772453 338.23834784 201.78281743 346.20444229 201.77456811 354.17062547 C201.77066779 358.23274718 201.7715609 362.29471463 201.78562546 366.35681725 C201.79840144 370.08091109 201.79713471 373.80473534 201.78503475 377.52882902 C201.78216533 379.50275694 201.79398542 381.47668969 201.8064568 383.4505803 C201.720668 398.96981143 196.91782407 412.43594998 187.41455078 424.6628418 C186.84091797 425.4259668 186.26728516 426.1890918 185.67626953 426.9753418 C176.31921086 438.51638204 161.96345567 446.13715518 147.41455078 448.6628418 C135.98437857 449.70799409 124.46665237 449.49774925 112.9999938 449.43586326 C108.50186761 449.41671955 104.00379385 449.42814063 99.50564575 449.43476868 C91.95934829 449.44107737 84.41340958 449.42300317 76.8671875 449.39013672 C68.18389906 449.35262702 59.50128884 449.35444269 50.81796443 449.37717789 C42.40840642 449.39823434 33.99909544 449.3907938 25.58954239 449.37085915 C22.03568444 449.36294166 18.48203937 449.3647811 14.92818832 449.37488365 C10.73343562 449.38555118 6.53945993 449.37098057 2.34482956 449.33814049 C0.81962695 449.33003786 -0.70564822 449.33009147 -2.23084259 449.33961868 C-21.73519241 449.44793592 -38.66621825 443.17111982 -52.97998047 429.51831055 C-63.55290643 417.93089094 -70.59785553 403.0440075 -70.77832031 387.20776367 C-70.8024147 385.28051453 -70.8024147 385.28051453 -70.82699585 383.31433105 C-70.83848016 381.92009141 -70.84908923 380.52584432 -70.85888672 379.1315918 C-70.8642104 378.42530136 -70.86953407 377.71901093 -70.87501907 376.99131775 C-70.90166237 373.25732512 -70.92107063 369.52336501 -70.93554688 365.78930664 C-70.94891392 362.70469697 -70.97682812 359.62074449 -71.01757812 356.53637695 C-71.06689835 352.80227783 -71.09166522 349.06877675 -71.09877396 345.33436584 C-71.10548054 343.91497756 -71.12068758 342.49560235 -71.14466476 341.07640076 C-71.17632055 339.09047627 -71.17335107 337.1040918 -71.16894531 335.11791992 C-71.17703217 333.98938599 -71.18511902 332.86085205 -71.19345093 331.69812012 C-70.39018903 327.68805997 -68.72701193 326.19362445 -65.58544922 323.6628418 C-62.58544922 323.0378418 -62.58544922 323.0378418 -59.58544922 323.6628418 C-54.58544922 328.6628418 -54.58544922 328.6628418 -54.58544922 368.6628418 C24.61455078 368.6628418 103.81455078 368.6628418 185.41455078 368.6628418 C185.35318776 313.50263752 185.35318776 313.50263752 185.25439453 258.3425293 C185.23830288 250.90210023 185.22245948 243.4616707 185.20703125 236.02124023 C185.20508731 235.0887375 185.20314337 234.15623477 185.20114052 233.19547439 C185.17014218 218.15211583 185.15315153 203.10877253 185.14135656 188.06538805 C185.128934 172.6202772 185.10140766 157.17524619 185.05993772 141.73018575 C185.03483394 132.20411148 185.02143122 122.67816967 185.02312121 113.15206185 C185.02315102 106.61460667 185.00847495 100.07728615 184.9823865 93.53988346 C184.96777703 89.77131673 184.95950605 86.00302614 184.96874809 82.23443604 C184.97861989 78.13957057 184.95744899 74.04543002 184.93353271 69.95062256 C184.94129313 68.77160079 184.94905355 67.59257902 184.95704913 66.37782931 C184.81764727 52.85224606 180.25846138 41.17245701 171.12548828 31.15112305 C158.65889569 19.17923651 144.81513675 17.35923109 128.18701172 17.37231445 C126.65999526 17.36632071 125.13298182 17.35951324 123.60597229 17.35195923 C119.47971451 17.33437735 115.35353982 17.32960715 111.22724819 17.32832766 C108.64291724 17.32690098 106.05860707 17.32262163 103.47428131 17.31733322 C94.44019746 17.2988583 85.40617243 17.29065936 76.37207031 17.29223633 C67.9804196 17.29343681 59.58902645 17.2723462 51.19744086 17.240749 C43.96822912 17.21450856 36.7391011 17.20387229 29.50984216 17.20514715 C25.20304045 17.20565453 20.89646787 17.20009619 16.58971405 17.17879105 C12.53477899 17.15927722 8.48028854 17.1593728 4.42533684 17.17382431 C2.94723032 17.17589738 1.469095 17.17130238 -0.00896263 17.15910339 C-15.18478467 17.04208208 -28.95806453 20.355225 -40.33544922 30.9128418 C-51.98824189 43.44302121 -54.15199004 57.7435575 -54.08544922 74.1003418 C-54.07336222 77.12050112 -54.08709442 80.13892837 -54.11669922 83.15893555 C-54.10537964 83.83919296 -54.09406006 84.51945038 -54.08239746 85.22032166 C-54.13262572 89.95400057 -55.23185843 92.34636554 -58.58544922 95.6628418 C-60.58544922 96.3269043 -60.58544922 96.3269043 -62.58544922 96.2878418 C-63.24544922 96.30073242 -63.90544922 96.31362305 -64.58544922 96.3269043 C-67.74706385 95.27714944 -68.789942 93.41854405 -70.58544922 90.6628418 C-71.0871582 87.18041992 -71.0871582 87.18041992 -71.08154297 83.1940918 C-71.0829982 82.47733276 -71.08445343 81.76057373 -71.08595276 81.02209473 C-71.08429712 79.50581805 -71.07277314 77.98952398 -71.05200195 76.47338867 C-71.02338169 74.1972358 -71.0313318 71.92346732 -71.04443359 69.6472168 C-71.01730598 49.26992521 -65.10297945 32.57400505 -50.72216797 17.7409668 C-36.40059762 4.33858626 -18.99523182 -0.11865483 0 0 Z " fill="#020202" transform="translate(311.58544921875,103.337158203125)"/>
<path d="M0 0 C1.20348083 -0.00218285 1.20348083 -0.00218285 2.43127441 -0.00440979 C4.12235151 -0.00275473 5.81344428 0.00876253 7.50439453 0.02954102 C10.08561505 0.05850248 12.66478045 0.05014134 15.24609375 0.03710938 C16.8932391 0.04334735 18.54037799 0.05173875 20.1875 0.0625 C20.95533813 0.05956436 21.72317627 0.05662872 22.51428223 0.05360413 C27.02661541 0.13263082 30.05777223 0.61254107 33.59375 3.49609375 C36.3208379 9.36483873 37.7566488 15.59765922 39.28125 21.87109375 C39.50619141 22.77214844 39.73113281 23.67320312 39.96289062 24.6015625 C41.59375 31.21422635 41.59375 31.21422635 41.59375 33.49609375 C42.42974417 33.49240658 43.26573833 33.48871941 44.12706566 33.4849205 C64.49282509 33.39648408 84.8585513 33.3303426 105.22446251 33.28884506 C115.0733773 33.26824243 124.92216371 33.24016585 134.77099609 33.19433594 C143.35781843 33.15439772 151.94454776 33.12864423 160.5314604 33.11973977 C165.07586346 33.11453684 169.6200005 33.10235618 174.16431808 33.07317352 C178.44725599 33.0458939 182.72981992 33.03767393 187.01283646 33.04366302 C188.57928758 33.04256837 190.14575205 33.03468938 191.71212769 33.01927185 C202.31125547 32.92012036 211.40581964 33.41858828 219.53125 40.87109375 C224.01278651 45.51779745 226.03089292 50.42240373 226.08251953 56.86206055 C225.88308315 65.32868221 223.49720964 72.73178407 220.7734375 80.640625 C220.27069689 82.14556887 219.76943445 83.65100724 219.26956177 85.15690613 C218.22506412 88.28849174 217.16651959 91.41482557 216.09667969 94.5378418 C214.73492919 98.51511172 213.40410564 102.50189666 212.08302116 106.49283314 C211.0535619 109.59437993 210.0105253 112.69122497 208.96319962 115.7867794 C208.46778305 117.2546282 207.97583702 118.72365364 207.48763657 120.19391823 C201.28978418 138.78120866 201.28978418 138.78120866 194.14453125 144.43359375 C193.40589844 144.78421875 192.66726563 145.13484375 191.90625 145.49609375 C191.15988281 145.86734375 190.41351563 146.23859375 189.64453125 146.62109375 C185.83240745 148.24759991 182.91156482 148.6241364 178.79310608 148.63412476 C177.58312454 148.63957809 176.37314301 148.64503143 175.12649536 148.65065002 C173.78363043 148.65176978 172.44076543 148.65282031 171.09790039 148.65380859 C169.68524518 148.65847723 168.27259147 148.66362088 166.85993958 148.66920471 C163.81683048 148.68048293 160.77373117 148.68891836 157.73060799 148.69532394 C152.91952488 148.70600207 148.10851213 148.72624558 143.29747009 148.7484436 C129.61639623 148.81037686 115.93532676 148.86440717 102.25415039 148.89746094 C94.69897816 148.91579442 87.14392399 148.94471217 79.58883852 148.98546565 C75.59025801 149.00655313 71.59182638 149.0219954 67.59318733 149.02427292 C63.83302615 149.02641719 60.07317518 149.04226355 56.31310844 149.06866264 C54.93284184 149.07586495 53.55253769 149.07795209 52.17225647 149.07456017 C50.28860846 149.07067048 48.40495081 149.0868672 46.52137756 149.10409546 C45.46705567 149.10740561 44.41273378 149.11071575 43.32646275 149.11412621 C40.17843299 149.55414508 38.79392954 150.21533958 36.59375 152.49609375 C36.00862445 156.58285495 36.00862445 156.58285495 36.59375 160.49609375 C38.77385407 163.28379306 39.94381002 164.38477416 43.47704983 164.98993587 C44.60251752 164.98712895 45.72798521 164.98432203 46.88755798 164.98143005 C48.18161057 164.98811707 49.47566315 164.99480408 50.80892944 165.00169373 C52.24103078 164.98900676 53.67312914 164.97597958 55.10522461 164.96264648 C56.61492581 164.96319526 58.12462729 164.96557017 59.63432312 164.96963501 C62.88434576 164.9748121 66.13403119 164.96773756 69.38401604 164.95138359 C74.5231657 164.92628458 79.66198172 164.93254375 84.80116272 164.94386292 C97.56582299 164.96707333 110.33038731 164.94863079 123.09503174 164.92236328 C133.01508098 164.90242259 142.93486421 164.89382903 152.85491377 164.91929966 C157.96352972 164.93112134 163.07138849 164.91944828 168.1799258 164.89004695 C171.35857263 164.87679108 174.53692582 164.88420998 177.71556282 164.89732742 C179.18897109 164.89918394 180.66241902 164.892468 182.13574219 164.87652397 C184.14804373 164.85593709 186.1606056 164.86902208 188.17295837 164.8837738 C189.86172545 164.88012896 189.86172545 164.88012896 191.58460903 164.87641048 C195.58532779 165.70029295 197.1106227 167.31537671 199.59375 170.49609375 C199.59375 174.15353243 199.40683469 176.4355485 197.15625 179.37109375 C193.8651774 181.74066602 191.50720475 181.62816145 187.48471069 181.64326477 C186.18091461 181.65042007 184.87711853 181.65757538 183.53381348 181.66494751 C182.0803225 181.66778796 180.62683127 181.67049967 179.17333984 181.6730957 C177.64909713 181.67935935 176.12485595 181.68600606 174.60061646 181.69300842 C170.45157505 181.71043112 166.30254518 181.72097436 162.15347624 181.72921395 C159.56068566 181.73436309 156.96789867 181.74043896 154.37511063 181.74672508 C146.26141287 181.76578361 138.14772423 181.78001143 130.03400838 181.78833705 C120.6714577 181.79810269 111.30914386 181.82440175 101.94667661 181.86483794 C94.70920182 181.89502195 87.4717948 181.90980822 80.23425829 181.91311806 C75.91240669 181.91546661 71.59080791 181.92440086 67.2690239 181.94957924 C63.19944293 181.97290405 59.13028042 181.97707564 55.06064987 181.96681786 C53.57076626 181.9663234 52.08086175 181.97261731 50.59104156 181.9863739 C42.65814121 182.05549662 36.4311018 181.89868489 29.59375 177.49609375 C28.706875 176.95984375 27.82 176.42359375 26.90625 175.87109375 C21.38210618 170.19764874 19.26794306 164.24959144 19.03125 156.37109375 C19.35615696 148.48782496 21.11281832 143.54643253 26.90625 138.18359375 C32.37482065 133.94948947 36.90430413 132.3412395 43.83203125 132.42578125 C45.45105347 132.4410083 45.45105347 132.4410083 47.1027832 132.45654297 C47.92480225 132.46959473 48.74682129 132.48264648 49.59375 132.49609375 C49.39267136 131.70430725 49.19159271 130.91252075 48.98442078 130.09674072 C46.41546764 119.98017034 43.84782135 109.86326866 41.28125 99.74609375 C41.07687569 98.94047375 40.87250137 98.13485374 40.6619339 97.30482101 C33.91715221 70.71565959 27.21268969 44.11690682 20.59375 17.49609375 C19.7059082 17.48674805 18.81806641 17.47740234 17.90332031 17.46777344 C14.60029081 17.42368694 11.29854993 17.36204629 7.99609375 17.28857422 C6.56848063 17.26039764 5.14071247 17.23916648 3.71289062 17.22509766 C1.65674668 17.20361983 -0.39754002 17.15695401 -2.453125 17.10546875 C-3.68901367 17.08452148 -4.92490234 17.06357422 -6.19824219 17.04199219 C-9.93821983 16.40556981 -11.12722311 15.46713567 -13.40625 12.49609375 C-13.97265625 10.49609375 -13.97265625 10.49609375 -13.96875 8.49609375 C-13.99066406 7.83609375 -14.01257813 7.17609375 -14.03515625 6.49609375 C-12.00992158 0.05559592 -5.74394196 -0.08403766 0 0 Z " fill="#030303" transform="translate(161.40625,182.50390625)"/>
<path d="M0 0 C20.51426305 -0.0700643 41.02850639 -0.12297554 61.5428648 -0.15543652 C71.06792385 -0.17090896 80.59290857 -0.1920057 90.11791992 -0.22631836 C98.41939732 -0.25620915 106.72082089 -0.27557226 115.02235061 -0.28226548 C119.41843281 -0.28617829 123.81436103 -0.29538175 128.21039391 -0.31719017 C132.34799781 -0.33755026 136.48538428 -0.34383478 140.62303352 -0.33932304 C142.14158688 -0.34014846 143.66014749 -0.34611705 145.17865753 -0.35761642 C147.2528507 -0.37255359 149.32622406 -0.36894984 151.4004364 -0.36076355 C153.14124245 -0.36491162 153.14124245 -0.36491162 154.9172163 -0.36914349 C158.35717173 0.04276901 160.23863423 0.94190664 163 3 C166.33367316 9.66734632 162.89433239 17.35298923 160.72270203 23.89216614 C160.24664673 25.29938136 159.77005624 26.70641563 159.29296875 28.11328125 C158.80612125 29.57413408 158.32007566 31.03525438 157.83479309 32.49662781 C156.81925089 35.54601269 155.79545146 38.59245588 154.76538086 41.63696289 C153.44629793 45.53726405 152.14610758 49.44355073 150.85172558 53.35210896 C149.85217821 56.36465969 148.84381058 59.37419825 147.83263588 62.382864 C147.34973889 63.82253402 146.86933924 65.26304423 146.39150047 66.70440102 C145.72314785 68.71528292 145.04327479 70.721894 144.36010742 72.7277832 C143.97594162 73.86947464 143.59177582 75.01116608 143.19596863 76.18745422 C142.05856582 78.86227144 141.28751521 80.26135245 139 82 C136.09098987 82.96967004 134.26012509 83.12352446 131.23542786 83.12025452 C130.25526199 83.12162918 129.27509613 83.12300385 128.26522827 83.12442017 C127.19132843 83.12082489 126.11742859 83.11722961 125.01098633 83.11352539 C123.87913406 83.11367142 122.7472818 83.11381744 121.58113098 83.1139679 C117.83141173 83.11326995 114.08174185 83.10548304 110.33203125 83.09765625 C107.73557055 83.09579165 105.13910949 83.09436795 102.54264832 83.09336853 C96.40161011 83.08993752 90.26059235 83.08205206 84.11956185 83.07201904 C77.1280921 83.06084438 70.13662151 83.05534404 63.14514506 83.05032361 C48.76342048 83.03986909 34.38171087 83.02227808 20 83 C17.68500592 73.65533776 15.37243908 64.31007908 13.06289864 54.96406746 C11.99020947 50.62353977 10.91671114 46.28321567 9.84130859 41.94335938 C8.80192803 37.74874077 7.76474486 33.55358424 6.72903061 29.35805893 C6.3351314 27.7640468 5.94046436 26.17022419 5.54498672 24.57660294 C4.98770382 22.3303869 4.43325068 20.08348886 3.87939453 17.83642578 C3.56406769 16.56179474 3.24874084 15.2871637 2.92385864 13.97390747 C1.81422655 9.34377762 0.90781565 4.67317025 0 0 Z " fill="#F5F5F5" transform="translate(207,232)"/>
<path d="M0 0 C79.2 0 158.4 0 240 0 C240 13.54186947 234.87799272 24.9067095 225.6875 34.8125 C213.82269438 45.83358611 199.92938958 48.61106222 184.24829102 48.51757812 C182.70112452 48.52301116 181.15396322 48.5301404 179.60681152 48.53881836 C175.43929554 48.55691598 171.27217959 48.5500405 167.10465741 48.53730202 C162.72120496 48.52710161 158.3377844 48.53658725 153.95433044 48.54284668 C146.59506142 48.55010351 139.23595349 48.54058801 131.87670898 48.52148438 C123.39806208 48.4997275 114.9198002 48.50676627 106.44116265 48.52879 C99.13119061 48.54700995 91.82133371 48.54947001 84.51134628 48.53903532 C80.15878656 48.53283542 75.80640709 48.53186707 71.45385933 48.54518127 C67.35862817 48.55683548 63.2638876 48.5485419 59.1687088 48.52560425 C57.67610166 48.5203674 56.18345238 48.52174343 54.69086266 48.53065491 C39.09259424 48.61511433 25.35194371 45.12819297 13.75 34.25 C4.74254946 24.64326344 0 13.16574283 0 0 Z " fill="#F6F6F6" transform="translate(257,488)"/>
<path d="M0 0 C5.74713963 3.29785529 10.86887113 8.67874429 12.87890625 15.09375 C14.57322707 23.55062085 14.12188936 32.04542087 9.328125 39.3359375 C4.16470965 46.39354054 -2.53800242 49.13013349 -10.95703125 50.78515625 C-18.60003744 51.40935821 -25.93820595 47.47661205 -31.6640625 42.66015625 C-37.65075182 36.18202228 -39.3344458 29.05902778 -39.08203125 20.3671875 C-38.19593985 13.81855009 -35.24199346 8.45522045 -30.421875 3.9609375 C-20.83531328 -3.32733404 -11.12206169 -4.93148018 0 0 Z " fill="#040404" transform="translate(345.671875,368.6640625)"/>
<path d="M0 0 C5.74713963 3.29785529 10.86887113 8.67874429 12.87890625 15.09375 C14.57322707 23.55062085 14.12188936 32.04542087 9.328125 39.3359375 C4.16470965 46.39354054 -2.53800242 49.13013349 -10.95703125 50.78515625 C-18.60003744 51.40935821 -25.93820595 47.47661205 -31.6640625 42.66015625 C-37.65075182 36.18202228 -39.3344458 29.05902778 -39.08203125 20.3671875 C-38.19593985 13.81855009 -35.24199346 8.45522045 -30.421875 3.9609375 C-20.83531328 -3.32733404 -11.12206169 -4.93148018 0 0 Z " fill="#040404" transform="translate(217.671875,368.6640625)"/>
<path d="M0 0 C0.8119986 -0.00554901 1.62399719 -0.01109802 2.46060181 -0.01681519 C5.13710067 -0.02859869 7.81190153 -0.00435067 10.48828125 0.02148438 C12.3524569 0.02319591 14.21663495 0.02312936 16.08081055 0.0213623 C19.98477249 0.02301481 23.8881597 0.04169992 27.79199219 0.07324219 C32.79235821 0.11291956 37.79197164 0.11728699 42.79246521 0.10977936 C46.64097978 0.10670761 50.48932562 0.11883749 54.33779907 0.13591003 C56.1813552 0.14293382 58.02493045 0.14606532 59.86849976 0.1452179 C62.44653787 0.14701867 65.02367969 0.16842392 67.6015625 0.1953125 C68.74100815 0.1909166 68.74100815 0.1909166 69.9034729 0.18643188 C74.36165908 0.25805827 77.25816334 0.8524818 80.80078125 3.61523438 C82.20535862 6.42438911 82.04973282 8.50333972 81.80078125 11.61523438 C80.0209372 14.75115008 79.27769918 15.45626173 75.80078125 16.61523438 C73.13546013 16.73699732 70.49497608 16.80369928 67.82861328 16.82397461 C66.61105347 16.83865028 66.61105347 16.83865028 65.36889648 16.85362244 C62.68214556 16.88354319 59.99544415 16.90494983 57.30859375 16.92382812 C56.39085049 16.93039995 55.47310722 16.93697178 54.52755356 16.94374275 C49.67186778 16.97631813 44.81620383 17.00077621 39.96044922 17.02026367 C35.94059432 17.03809459 31.92143856 17.07294554 27.90185547 17.12280273 C23.04835222 17.18293238 18.19549846 17.21372873 13.34164047 17.22343636 C11.49241451 17.23200243 9.64320644 17.25084897 7.79419327 17.28017998 C5.20593566 17.31903476 2.62021758 17.32013821 0.03173828 17.31225586 C-0.73103424 17.33225647 -1.49380676 17.35225708 -2.2796936 17.37286377 C-5.17523738 17.33329537 -7.49424091 17.18584479 -9.7959938 15.32280159 C-11.79527653 13.01552263 -13.0981498 11.02961709 -13.82421875 8.05273438 C-11.99816138 0.93111063 -6.48155205 -0.11316873 0 0 Z " fill="#010101" transform="translate(111.19921875,287.384765625)"/>
<path d="M0 0 C1.34850966 0.00171254 2.69702264 0.00164396 4.04553223 -0.00012207 C6.86678071 0.00152842 9.68723193 0.02017387 12.50830078 0.05175781 C16.11646157 0.09143588 19.72357924 0.09580167 23.33191681 0.08829498 C26.11502564 0.08521887 28.89790191 0.09736833 31.68095398 0.11442566 C33.65564626 0.12483213 35.63038286 0.1253027 37.60510254 0.12561035 C38.80985229 0.14152222 40.01460205 0.15743408 41.25585938 0.17382812 C42.84207092 0.18645691 42.84207092 0.18645691 44.46032715 0.19934082 C47.76530306 0.65141216 49.6672448 1.63267651 52.34375 3.59375 C53.74832737 6.40290474 53.59270157 8.48185534 53.34375 11.59375 C51.56390595 14.7296657 50.82066793 15.43477736 47.34375 16.59375 C45.39249855 16.71234187 43.43754368 16.77326666 41.48291016 16.80249023 C39.67555893 16.83142616 39.67555893 16.83142616 37.83169556 16.86094666 C32.33118001 16.91860989 26.83081246 16.96824256 21.33007812 16.9987793 C18.4256582 17.01660282 15.52220738 17.05144147 12.61816406 17.10131836 C9.10678131 17.16154837 5.59629776 17.19225704 2.08442307 17.20195198 C0.10062377 17.21464974 -1.88291766 17.25668841 -3.86630249 17.29917908 C-12.62548294 17.27911444 -12.62548294 17.27911444 -15.59307861 15.30593872 C-17.5511158 13.05202978 -18.57642698 10.92102439 -19.28125 8.03125 C-18.58651631 5.32178859 -17.62000125 3.59741912 -15.58862305 1.66113281 C-10.9861245 -0.88114434 -5.10413059 -0.06473004 0 0 Z " fill="#010101" transform="translate(116.65625,255.40625)"/>
<path d="M0 0 C0.95390625 -0.00478363 1.9078125 -0.00956726 2.890625 -0.01449585 C4.90105851 -0.01788796 6.91154769 -0.00873388 8.921875 0.01220703 C11.99084007 0.03898258 15.05614805 0.01243596 18.125 -0.01953125 C20.08334137 -0.01622703 22.04168047 -0.00982054 24 0 C24.91265625 -0.01012115 25.8253125 -0.02024231 26.765625 -0.03067017 C31.10055237 0.04867304 34.10629806 0.28062494 37.58203125 3.01806641 C40 5.6640625 40 5.6640625 40.6875 8.6640625 C39.73514299 12.81980218 38.41105765 14.09156208 35 16.6640625 C31.45794281 17.40612881 27.97973601 17.36502825 24.37109375 17.328125 C22.83111473 17.33530045 22.83111473 17.33530045 21.26002502 17.34262085 C19.09398869 17.34601736 16.92790092 17.33683247 14.76196289 17.31591797 C11.44496634 17.28912281 8.13134536 17.31568976 4.81445312 17.34765625 C2.70832586 17.34435265 0.6022007 17.33794744 -1.50390625 17.328125 C-2.99151207 17.34330673 -2.99151207 17.34330673 -4.50917053 17.35879517 C-11.35745131 17.2420506 -11.35745131 17.2420506 -14.61694336 14.31005859 C-16.34668736 11.00079726 -16.76585719 9.34017699 -16 5.6640625 C-11.07033225 0.26077173 -7.1045393 -0.07878776 0 0 Z " fill="#050505" transform="translate(365,501.3359375)"/>
<path d="M0 0 C0.97988892 -0.00241196 1.95977783 -0.00482391 2.96936035 -0.00730896 C5.03706924 -0.0063313 7.10480457 0.007043 9.17236328 0.03198242 C12.33326333 0.06629242 15.49136709 0.05263637 18.65234375 0.03320312 C20.66407437 0.0401018 22.6757978 0.04977438 24.6875 0.0625 C25.63032837 0.05754013 26.57315674 0.05258026 27.54455566 0.04747009 C31.78496519 0.12339863 34.21924272 0.25200557 37.91210938 2.48071289 C40.42138669 5.27130074 40.92023782 6.88100327 40.84375 10.62890625 C39.07335551 13.37607012 37.78083156 15.16036547 34.84375 16.62890625 C33.42086109 16.74824269 31.99277423 16.80858463 30.56518555 16.83764648 C29.68054123 16.8569371 28.79589691 16.87622772 27.88444519 16.89610291 C23.83682284 16.95380303 19.78937883 17.00311616 15.74145508 17.03393555 C13.60652506 17.05553002 11.4716839 17.08964981 9.3371582 17.13647461 C6.25952614 17.20338483 3.18372498 17.23091922 0.10546875 17.25 C-0.84677078 17.27783066 -1.79901031 17.30566132 -2.78010559 17.33433533 C-9.23860476 17.3142938 -9.23860476 17.3142938 -11.88046265 15.34109497 C-13.8617239 13.05393755 -15.0636564 11.00854 -15.78125 8.06640625 C-13.67645226 -0.14230495 -7.05667134 -0.09923209 0 0 Z " fill="#020202" transform="translate(113.15625,223.37109375)"/>
<path d="M0 0 C5.57894737 3.15789474 5.57894737 3.15789474 7 6 C7.42071592 9.05920574 7.48514117 11.9467746 7 15 C4.10799895 18.65305395 1.88959163 20.74232841 -2.75 21.375 C-6.22595496 20.97392827 -8.21349823 20.08590906 -10.7890625 17.6875 C-13.14567184 14.40345085 -13.55516213 10.94859063 -13 7 C-9.97873593 1.32332805 -6.28277359 -0.60411284 0 0 Z " fill="#EFEFEF" transform="translate(336,382)"/>
<path d="M0 0 C5.57894737 3.15789474 5.57894737 3.15789474 7 6 C7.42071592 9.05920574 7.48514117 11.9467746 7 15 C4.10799895 18.65305395 1.88959163 20.74232841 -2.75 21.375 C-6.22595496 20.97392827 -8.21349823 20.08590906 -10.7890625 17.6875 C-13.14567184 14.40345085 -13.55516213 10.94859063 -13 7 C-9.97873593 1.32332805 -6.28277359 -0.60411284 0 0 Z " fill="#EFEFEF" transform="translate(208,382)"/>
</svg>
