<svg width="57" height="57" viewBox="0 0 57 57" fill="none" xmlns="http://www.w3.org/2000/svg">
<g clipPath="url(#clip0_857_597)">
<path d="M28.0908 56.7844C43.564 56.7844 56.1075 44.241 56.1075 28.768C56.1075 13.2949 43.564 0.751465 28.0908 0.751465C12.6177 0.751465 0.0742188 13.2949 0.0742188 28.768C0.0742188 44.241 12.6177 56.7844 28.0908 56.7844Z" fill="black"/>
<path d="M16.2959 23.0016C19.1042 23.0016 21.9125 23.0182 24.7208 23.0016C27.3297 22.985 28.3268 21.2901 27.147 18.9637C26.0336 16.7702 24.9203 14.5934 23.8235 12.3833C22.544 9.82424 23.2585 7.14888 25.5019 6.01891C27.9113 4.80586 30.4039 5.7198 31.7499 8.34531C37.1339 18.7975 42.5179 29.233 47.8852 39.6852C49.2312 42.3107 48.633 44.7535 46.3897 45.9C43.9968 47.1297 41.3214 46.1825 39.9754 43.6069C38.3802 40.5826 36.7683 37.5582 35.2229 34.5007C34.2757 32.6063 32.83 31.6758 30.703 31.7589C29.3404 31.8087 27.9778 31.7755 26.6152 31.7589C24.7042 31.7256 23.3749 32.6063 22.4941 34.2847C20.7826 37.5915 19.071 40.8983 17.293 44.1885C16.3624 45.9 14.5013 46.6478 12.4407 46.2822C10.7292 45.9831 9.33331 44.7202 9.15052 42.9588C9.05082 42.0116 9.23361 40.9315 9.6158 40.0508C10.43 38.2063 11.4437 36.4615 12.3909 34.6669C13.4378 32.6894 12.906 31.7589 10.7125 31.7589C9.6158 31.7589 8.51907 31.7589 7.42233 31.7422C4.76358 31.6924 2.91907 29.9974 2.90245 27.6046C2.88583 25.1452 4.84666 23.0182 7.33924 22.9684C10.3137 22.9518 13.3048 23.0016 16.2959 23.0016Z" fill="white" stroke="black" strokeWidth="1.12527" strokeMiterlimit="10"/>
</g>
<defs>
<clipPath id="clip0_857_597">
<rect width="56" height="55.9997" fill="white" transform="translate(0.03125 0.734375)"/>
</clipPath>
</defs>
</svg>
